<svg width="1000" height="1066" viewBox="0 0 1000 1066" fill="none" xmlns="http://www.w3.org/2000/svg">
<rect width="1000" height="1000" rx="500" fill="#FFB800"/>
<path d="M704.172 797.242C704.172 800.758 702.414 803.688 698.898 806.031C695.383 808.375 691.135 810.279 686.154 811.744C681.467 813.209 676.633 814.234 671.652 814.82C666.965 815.406 663.449 815.699 661.105 815.699C655.246 815.699 650.412 815.113 646.604 813.941C643.088 813.062 638.84 811.305 633.859 808.668C632.395 807.789 628.879 804.127 623.312 797.682C618.039 790.943 611.301 782.301 603.098 771.754C595.188 761.207 586.105 749.195 575.852 735.719C565.891 722.242 555.49 708.473 544.65 694.41C534.104 680.055 523.557 665.846 513.01 651.783C502.756 637.428 493.234 624.391 484.445 612.672C475.656 600.66 468.039 590.26 461.594 581.471C455.441 572.389 451.047 566.09 448.41 562.574L445.773 563.453C447.531 598.316 449.729 633.18 452.365 668.043C455.295 702.613 460.129 736.891 466.867 770.875C467.746 774.391 468.625 778.053 469.504 781.861C470.676 785.67 471.262 789.625 471.262 793.727C471.262 800.465 469.064 804.713 464.67 806.471C460.275 808.521 455.441 809.547 450.168 809.547C447.238 809.547 443.723 809.4 439.621 809.107C435.52 808.814 431.271 808.229 426.877 807.35C422.482 806.471 418.381 805.299 414.572 803.834C411.057 802.662 408.273 801.051 406.223 799C402.121 795.484 399.484 791.822 398.312 788.014C397.434 784.205 396.555 779.664 395.676 774.391C387.18 715.504 381.76 656.471 379.416 597.291C377.365 537.818 376.34 478.492 376.34 419.312C376.34 393.531 376.486 368.189 376.779 343.287C377.072 318.385 377.512 293.043 378.098 267.262C374.582 266.969 371.213 265.797 367.99 263.746C365.061 261.695 362.424 259.205 360.08 256.275C357.736 253.053 355.832 249.83 354.367 246.607C353.195 243.092 352.609 239.723 352.609 236.5C352.609 233.277 353.342 230.055 354.807 226.832C356.564 223.609 358.615 220.68 360.959 218.043C363.596 215.406 366.379 212.916 369.309 210.572C372.238 208.229 374.875 206.324 377.219 204.859V196.949C377.219 194.02 377.219 190.65 377.219 186.842C377.512 183.033 378.098 179.518 378.977 176.295C380.148 172.779 381.906 169.996 384.25 167.945C386.594 165.602 390.109 164.43 394.797 164.43C400.949 164.43 407.102 165.455 413.254 167.506C419.406 169.557 424.68 173.219 429.074 178.492C451.047 169.703 474.191 165.309 498.508 165.309C519.895 165.309 539.377 169.557 556.955 178.053C574.533 186.549 589.475 197.975 601.779 212.33C614.377 226.686 624.045 243.238 630.783 261.988C637.521 280.738 640.891 300.367 640.891 320.875C640.891 342.848 636.789 364.234 628.586 385.035C620.383 405.543 609.689 425.025 596.506 443.482C583.322 461.939 568.234 478.932 551.242 494.459C534.543 509.693 517.551 523.023 500.266 534.449C527.805 571.07 555.637 607.398 583.762 643.434C612.18 679.176 641.184 714.918 670.773 750.66C672.531 752.711 675.168 755.787 678.684 759.889C682.492 763.99 686.301 768.531 690.109 773.512C693.918 778.199 697.141 782.74 699.777 787.135C702.707 791.529 704.172 794.898 704.172 797.242ZM575.852 313.844C575.852 303.004 573.947 291.725 570.139 280.006C566.33 268.287 560.91 257.74 553.879 248.365C546.848 238.697 538.352 230.787 528.391 224.635C518.723 218.482 507.883 215.406 495.871 215.406C486.203 215.406 476.535 216.871 466.867 219.801C457.492 222.438 448.41 225.953 439.621 230.348C440.207 274 440.646 317.652 440.939 361.305C441.525 404.957 442.258 448.609 443.137 492.262L451.047 493.141C466.281 484.645 481.223 473.951 495.871 461.061C510.812 448.17 524.143 433.814 535.861 417.994C547.873 402.174 557.541 385.475 564.865 367.896C572.189 350.025 575.852 332.008 575.852 313.844Z" fill="#002583"/>
</svg>
